<svg xmlns="http://www.w3.org/2000/svg" width="40" height="48" viewBox="0 0 40 48">
  <!-- Pin shape -->
  <path d="M20 0C8.954 0 0 8.954 0 20c0 15 20 28 20 28s20-13 20-28C40 8.954 31.046 0 20 0z" fill="#21808D"/>
  <!-- White circle background -->
  <circle cx="20" cy="18" r="12" fill="white"/>
  <!-- Wrench icon -->
  <g transform="translate(10, 8)" fill="#21808D">
    <path d="M18.36 2.64a3.5 3.5 0 0 0-4.95 0L11.5 4.55a1 1 0 0 1-1.41 0L8.68 3.14a1 1 0 0 0-1.41 0L5.86 4.55a1 1 0 0 0 0 1.41l1.41 1.41a1 1 0 0 1 0 1.41L3.64 12.41a3.5 3.5 0 0 0 4.95 4.95l3.63-3.63a1 1 0 0 1 1.41 0l1.41 1.41a1 1 0 0 0 1.41 0l1.41-1.41a1 1 0 0 0 0-1.41l-1.41-1.41a1 1 0 0 1 0-1.41l1.91-1.91a3.5 3.5 0 0 0 0-4.95z"/>
    <path d="M4 16l2-2 2 2-2 2-2-2z"/>
  </g>
</svg>
